<svg id="Layer_1" data-name="Layer 1" xmlns="http://www.w3.org/2000/svg" viewBox="0 0 49.1 36.9"><defs><style>.cls-1,.cls-4{fill:#2a5699;}.cls-1,.cls-2,.cls-3,.cls-6{stroke:#2a5699;}.cls-1,.cls-2,.cls-6{stroke-miterlimit:10;}.cls-1,.cls-3,.cls-6{stroke-width:0.75px;}.cls-2,.cls-6{fill:none;}.cls-2,.cls-3{stroke-linecap:square;}.cls-2{stroke-width:0.5px;}.cls-3,.cls-5{fill:#fff;}.cls-3{stroke-linejoin:round;}</style></defs><title>Artboard 1</title><path class="cls-1" d="M9.68,32.38a.71.71,0,0,1,.72-.75.76.76,0,0,1,0,1.51A.71.71,0,0,1,9.68,32.38Z"/><path class="cls-1" d="M13.66,25a15.66,15.66,0,0,1,2.21-.17,4.65,4.65,0,0,1,3.28,1,3.73,3.73,0,0,1,1.14,2.9,4.29,4.29,0,0,1-1.17,3.15,5,5,0,0,1-3.57,1.16,16.58,16.58,0,0,1-1.89-.1Zm1,7.15a6.32,6.32,0,0,0,1.05.06,3.11,3.11,0,0,0,3.45-3.43c0-1.91-1.07-3.12-3.28-3.12a5.82,5.82,0,0,0-1.22.11Z"/><path class="cls-1" d="M29.76,28.88c0,2.78-1.7,4.26-3.76,4.26s-3.63-1.66-3.63-4.1,1.59-4.25,3.75-4.25S29.76,26.48,29.76,28.88ZM23.48,29c0,1.73.94,3.28,2.58,3.28s2.59-1.53,2.59-3.36c0-1.61-.84-3.29-2.58-3.29S23.48,27.24,23.48,29Z"/><path class="cls-1" d="M38,32.74a5.16,5.16,0,0,1-2.13.39,3.78,3.78,0,0,1-4-4.09,4,4,0,0,1,4.23-4.25,4.35,4.35,0,0,1,1.91.36l-.25.85a3.82,3.82,0,0,0-1.63-.33A3,3,0,0,0,32.94,29,2.94,2.94,0,0,0,36,32.25a4.27,4.27,0,0,0,1.71-.33Z"/><line class="cls-2" x1="38.88" y1="12.53" x2="38.88" y2="21.52"/><polyline class="cls-2" points="10.68 21.51 10.68 0.97 28.08 0.97"/><path class="cls-3" d="M28.38,12.27H38.76L28.38,1.09Z"/><rect class="cls-4" x="10.68" y="0.87" width="17.8" height="20.64"/><path class="cls-5" d="M22.41,14.17l1.71-8.95H26L23.49,17.16h-1.8L19.62,8.48l-2.16,8.68H15.67L13.15,5.22H15l1.7,9,2.07-8.95h1.62Z"/><rect class="cls-6" x="0.88" y="21.57" width="47.4" height="14.4" rx="5" ry="5"/><rect class="cls-4" x="26.07" y="12.27" width="12.81" height="9.24"/></svg>