<svg id="Layer_1" data-name="Layer 1" xmlns="http://www.w3.org/2000/svg" viewBox="0 0 49.1 36.9"><defs><style>.cls-1,.cls-4{fill:#2a5699;}.cls-1,.cls-2,.cls-3,.cls-5{stroke:#2a5699;}.cls-1,.cls-2,.cls-5{stroke-miterlimit:10;}.cls-1,.cls-3,.cls-5{stroke-width:0.75px;}.cls-2,.cls-5{fill:none;}.cls-2,.cls-3{stroke-linecap:square;}.cls-2{stroke-width:0.5px;}.cls-3,.cls-6{fill:#fff;}.cls-3{stroke-linejoin:round;}</style></defs><title>Artboard 1</title><path class="cls-1" d="M4.22,32.1a.71.71,0,0,1,.72-.76.76.76,0,0,1,0,1.51A.7.7,0,0,1,4.22,32.1Z"/><path class="cls-1" d="M8.19,24.75a14.33,14.33,0,0,1,2.22-.17,4.62,4.62,0,0,1,3.27,1,3.71,3.71,0,0,1,1.14,2.9,4.28,4.28,0,0,1-1.16,3.14,5,5,0,0,1-3.58,1.16,17,17,0,0,1-1.89-.09Zm1,7.15a8,8,0,0,0,1.06.05,3.1,3.1,0,0,0,3.44-3.42c0-1.91-1.07-3.12-3.27-3.12a6.14,6.14,0,0,0-1.23.1Z"/><path class="cls-1" d="M24.29,28.6c0,2.78-1.69,4.25-3.75,4.25s-3.64-1.65-3.64-4.1,1.6-4.24,3.76-4.24S24.29,26.2,24.29,28.6ZM18,28.73C18,30.46,19,32,20.59,32s2.6-1.52,2.6-3.36c0-1.6-.84-3.28-2.58-3.28S18,27,18,28.73Z"/><path class="cls-1" d="M32.5,32.46a5.25,5.25,0,0,1-2.14.38,3.77,3.77,0,0,1-4-4.09,4,4,0,0,1,4.22-4.24,4.26,4.26,0,0,1,1.92.36l-.25.85a3.84,3.84,0,0,0-1.63-.34,3,3,0,0,0-3.16,3.34A2.94,2.94,0,0,0,30.58,32a4.21,4.21,0,0,0,1.7-.34Z"/><path class="cls-1" d="M41.82,29.17c-.06-1.13-.13-2.48-.12-3.49h0c-.28.95-.62,2-1,3.07l-1.43,3.92h-.79l-1.31-3.85c-.38-1.13-.71-2.18-.94-3.14h0c0,1-.08,2.36-.15,3.58l-.22,3.46h-1l.57-8.08h1.33l1.38,3.91c.33,1,.61,1.88.81,2.72h0c.2-.81.49-1.7.85-2.72l1.44-3.91h1.33l.51,8.08H42Z"/><line class="cls-2" x1="38.88" y1="12.44" x2="38.88" y2="21.43"/><polyline class="cls-2" points="10.68 21.42 10.68 0.88 28.08 0.88"/><path class="cls-3" d="M28.38,12.18H38.76L28.38,1Z"/><rect class="cls-4" x="10.68" y="0.78" width="17.8" height="20.64"/><rect class="cls-5" x="0.88" y="21.48" width="47.4" height="14.4" rx="5" ry="5"/><rect class="cls-4" x="27.18" y="12.18" width="11.7" height="9.24"/><path class="cls-6" d="M22.41,14.14l1.71-9H26L23.49,17.12h-1.8L19.62,8.45l-2.16,8.67H15.67L13.15,5.18H15l1.7,9,2.07-9h1.62Z"/></svg>