<svg id="Layer_1" data-name="Layer 1" xmlns="http://www.w3.org/2000/svg" viewBox="0 0 49.1 36.9"><defs><style>.cls-1,.cls-4{fill:#2a5699;}.cls-1,.cls-2,.cls-3,.cls-5{stroke:#2a5699;}.cls-1,.cls-2,.cls-5{stroke-miterlimit:10;}.cls-1,.cls-3,.cls-5{stroke-width:0.75px;}.cls-2,.cls-5{fill:none;}.cls-2,.cls-3{stroke-linecap:square;}.cls-2{stroke-width:0.5px;}.cls-3,.cls-6{fill:#fff;}.cls-3{stroke-linejoin:round;}</style></defs><title>Artboard 1</title><path class="cls-1" d="M5.85,32.29a.71.71,0,0,1,.72-.75.76.76,0,0,1,0,1.51A.71.71,0,0,1,5.85,32.29Z"/><path class="cls-1" d="M9.82,24.94A15.93,15.93,0,0,1,12,24.78a4.6,4.6,0,0,1,3.27,1,3.74,3.74,0,0,1,1.14,2.91,4.28,4.28,0,0,1-1.16,3.14A5,5,0,0,1,11.72,33a16.77,16.77,0,0,1-1.9-.1Zm1,7.15a6.25,6.25,0,0,0,1.05.06,3.11,3.11,0,0,0,3.44-3.43c0-1.91-1.06-3.12-3.27-3.12a5.82,5.82,0,0,0-1.22.11Z"/><path class="cls-1" d="M25.92,28.79c0,2.78-1.69,4.26-3.75,4.26S18.53,31.4,18.53,29s1.6-4.25,3.76-4.25S25.92,26.39,25.92,28.79Zm-6.27.13c0,1.73.93,3.28,2.58,3.28s2.59-1.52,2.59-3.36c0-1.61-.84-3.29-2.58-3.29S19.65,27.15,19.65,28.92Z"/><path class="cls-1" d="M34.13,32.65A5,5,0,0,1,32,33,3.78,3.78,0,0,1,28,29a4,4,0,0,1,4.22-4.25,4.37,4.37,0,0,1,1.92.36l-.25.85a3.82,3.82,0,0,0-1.63-.33,3,3,0,0,0-3.15,3.33,2.94,2.94,0,0,0,3.1,3.25,4.27,4.27,0,0,0,1.71-.33Z"/><path class="cls-1" d="M41.07,32.92l-1-1.79c-.42-.68-.69-1.13-.94-1.59h0c-.23.46-.46.9-.88,1.6l-1,1.78H36l2.47-4.09-2.37-4h1.21l1.07,1.9c.3.53.52.94.74,1.37h0c.23-.48.44-.85.74-1.37l1.1-1.9h1.2l-2.46,3.94,2.52,4.15Z"/><line class="cls-2" x1="38.88" y1="12.44" x2="38.88" y2="21.43"/><polyline class="cls-2" points="10.68 21.42 10.68 0.88 28.08 0.88"/><path class="cls-3" d="M28.38,12.18H38.76L28.38,1Z"/><rect class="cls-4" x="10.68" y="0.78" width="17.8" height="20.64"/><rect class="cls-5" x="0.88" y="21.48" width="47.4" height="14.4" rx="5" ry="5"/><rect class="cls-4" x="27.18" y="12.18" width="11.7" height="9.24"/><path class="cls-6" d="M22.41,14.14l1.71-9H26L23.49,17.12h-1.8L19.62,8.45l-2.16,8.67H15.67L13.15,5.18H15l1.7,9,2.07-9h1.62Z"/></svg>