<svg id="Layer_1" data-name="Layer 1" xmlns="http://www.w3.org/2000/svg" viewBox="0 0 49.1 36.9"><defs><style>.cls-1,.cls-4{fill:none;}.cls-1,.cls-2,.cls-4,.cls-5{stroke:#2a5699;}.cls-1,.cls-2{stroke-linecap:square;}.cls-1,.cls-4,.cls-5{stroke-miterlimit:10;}.cls-1{stroke-width:0.5px;}.cls-2,.cls-6{fill:#fff;}.cls-2{stroke-linejoin:round;}.cls-2,.cls-4,.cls-5{stroke-width:0.75px;}.cls-3,.cls-5{fill:#2a5699;}</style></defs><title>Artboard 1</title><line class="cls-1" x1="38.88" y1="12.44" x2="38.88" y2="21.43"/><polyline class="cls-1" points="10.68 21.42 10.68 0.88 28.08 0.88"/><path class="cls-2" d="M28.38,12.18H38.76L28.38,1Z"/><rect class="cls-3" x="10.68" y="0.78" width="17.8" height="20.64"/><rect class="cls-4" x="0.88" y="21.48" width="47.4" height="14.4" rx="5" ry="5"/><rect class="cls-3" x="27.18" y="12.18" width="11.7" height="9.24"/><path class="cls-5" d="M7.18,32.1a.71.71,0,1,1,.7.75A.7.7,0,0,1,7.18,32.1Z"/><path class="cls-5" d="M11.15,24.75a14.33,14.33,0,0,1,2.22-.17,4.64,4.64,0,0,1,3.27,1,3.71,3.71,0,0,1,1.14,2.9,4.28,4.28,0,0,1-1.16,3.14A5,5,0,0,1,13,32.79a17,17,0,0,1-1.89-.09Zm1,7.15a7.9,7.9,0,0,0,1.06.05,3.1,3.1,0,0,0,3.44-3.42c0-1.91-1.07-3.12-3.28-3.12a6,6,0,0,0-1.22.1Z"/><path class="cls-5" d="M27.25,28.6c0,2.78-1.69,4.25-3.76,4.25s-3.63-1.65-3.63-4.1,1.59-4.24,3.75-4.24S27.25,26.2,27.25,28.6ZM21,28.73c0,1.73.94,3.27,2.58,3.27s2.59-1.52,2.59-3.36c0-1.6-.84-3.28-2.57-3.28S21,27,21,28.73Z"/><path class="cls-5" d="M31,25.53H28.58v-.89h6v.89H32.1v7.19H31Z"/><path class="cls-5" d="M41.36,32.72l-1-1.78c-.42-.69-.68-1.13-.94-1.6h0c-.23.47-.46.9-.88,1.61l-1,1.77h-1.2l2.47-4.09-2.37-4h1.21l1.07,1.89c.3.53.53.94.74,1.37h0c.23-.48.43-.85.73-1.37l1.1-1.89h1.2l-2.46,3.93,2.52,4.15Z"/><path class="cls-6" d="M22.41,14.14l1.71-9H26L23.49,17.12h-1.8L19.62,8.45l-2.16,8.67H15.67L13.15,5.18H15l1.7,9,2.07-9h1.62Z"/></svg>