<svg id="Layer_1" data-name="Layer 1" xmlns="http://www.w3.org/2000/svg" viewBox="0 0 49.1 36.9"><defs><style>.cls-1,.cls-4{fill:none;stroke-width:0.5px;}.cls-1,.cls-2,.cls-4,.cls-5{stroke:#e42127;}.cls-1,.cls-2{stroke-linecap:square;}.cls-1,.cls-4,.cls-5,.cls-6{stroke-miterlimit:10;}.cls-2,.cls-6{fill:#fff;}.cls-2{stroke-linejoin:round;}.cls-2,.cls-5{stroke-width:0.75px;}.cls-3,.cls-5{fill:#e42127;}.cls-6{stroke:#fff;stroke-width:0.15px;}</style></defs><title>Artboard 1 copy</title><line class="cls-1" x1="38.9" y1="12.56" x2="38.9" y2="21.56"/><polyline class="cls-1" points="10.7 21.55 10.7 1 28.1 1"/><path class="cls-2" d="M28.4,12.3H38.78L28.4,1.13Z"/><rect class="cls-3" x="10.85" y="0.9" width="17.65" height="20.64"/><rect class="cls-4" x="0.9" y="21.6" width="47.4" height="14.4" rx="5" ry="5"/><rect class="cls-3" x="27.27" y="12.3" width="11.5" height="9.24"/><path class="cls-5" d="M11.76,32.35a.71.71,0,0,1,.72-.75.7.7,0,0,1,.71.75.72.72,0,1,1-1.43,0Z"/><path class="cls-5" d="M15.73,25a11.55,11.55,0,0,1,2-.16A3.31,3.31,0,0,1,20,25.5a2.18,2.18,0,0,1,.71,1.69,2.4,2.4,0,0,1-.62,1.73,3.37,3.37,0,0,1-2.47.89,3.56,3.56,0,0,1-.84-.07V33H15.73Zm1.05,3.9a3.44,3.44,0,0,0,.86.08c1.26,0,2-.61,2-1.73s-.76-1.58-1.91-1.58a4.93,4.93,0,0,0-1,.08Z"/><path class="cls-5" d="M23.32,25a14.33,14.33,0,0,1,2.22-.17,4.64,4.64,0,0,1,3.27,1A3.73,3.73,0,0,1,30,28.74a4.28,4.28,0,0,1-1.16,3.14,5,5,0,0,1-3.58,1.17,16.58,16.58,0,0,1-1.89-.1Zm1,7.15a6.38,6.38,0,0,0,1.06.06,3.11,3.11,0,0,0,3.44-3.43c0-1.91-1.07-3.12-3.28-3.12a5.89,5.89,0,0,0-1.22.11Z"/><path class="cls-5" d="M32.51,24.89h4.35v.88H33.55v2.68h3.06v.87H33.55V33h-1Z"/><path class="cls-6" d="M20.78,3.94c-.18-.64-.64-1-1-.92a1.6,1.6,0,0,0-1.11.74c-.55,1.2.55,4.89.74,5.44-1.11,3.33-4.89,10-6.83,10.43,0-.46.18-1.75,2.68-3.32l.36-.37c-2.12,1-4.79,2.68-3.13,3.88.09.09.18.09.37.18,1.2.46,3-1,4.7-4.43a35.41,35.41,0,0,1,5.72-1.48c2.4,1.67,4.06,1.94,5.08,1.57a1.66,1.66,0,0,0,.92-1c-.92,1.11-2.95.37-4.61-.74a13.3,13.3,0,0,1,3.78-.09c.83.27.83.74.83.74a1.08,1.08,0,0,0,0-.93c-.74-1.2-4.06-.46-5.35-.37a9.86,9.86,0,0,1-3.78-4.7c.55-1.85,1.1-3.23.64-4.62M20,8c-.28-1.1-.74-3.69-.09-4.52,1.48.74.65,2.68.09,4.52m2.68,5.63a23,23,0,0,0-4.89,1.57,32.59,32.59,0,0,0,2-5.44,11.84,11.84,0,0,0,2.86,3.87"/></svg>