<svg id="Layer_1" data-name="Layer 1" xmlns="http://www.w3.org/2000/svg" viewBox="0 0 49.1 36.9"><defs><style>.cls-1,.cls-4{fill:none;}.cls-1,.cls-2,.cls-4,.cls-7{stroke:#207245;}.cls-1,.cls-2{stroke-linecap:square;}.cls-1,.cls-4,.cls-7{stroke-miterlimit:10;}.cls-1,.cls-7{stroke-width:0.5px;}.cls-2,.cls-6{fill:#fff;}.cls-2{stroke-linejoin:round;}.cls-2,.cls-4{stroke-width:0.75px;}.cls-3,.cls-7{fill:#207245;}.cls-5{isolation:isolate;}</style></defs><title>Artboard 1</title><line class="cls-1" x1="38.91" y1="12.39" x2="38.91" y2="21.38"/><polyline class="cls-1" points="10.71 21.37 10.71 0.83 28.11 0.83"/><path class="cls-2" d="M28.41,12.13H38.79L28.41,1Z"/><rect class="cls-3" x="10.86" y="0.73" width="17.65" height="20.64"/><rect class="cls-4" x="0.91" y="21.43" width="47.4" height="14.4" rx="5" ry="5"/><rect class="cls-3" x="27.24" y="12.13" width="11.55" height="9.24"/><g class="cls-5"><path class="cls-6" d="M19.94,9.2l3.29-5.66h3.14l-4.73,7.77,4.84,7.9H23.3l-3.36-5.75-3.38,5.75H13.39l4.86-7.9L13.5,3.54h3.14Z"/></g><path class="cls-7" d="M7.11,32.17a.71.71,0,0,1,.72-.75.76.76,0,0,1,0,1.51A.71.71,0,0,1,7.11,32.17Z"/><path class="cls-7" d="M15.51,32.8l-1-1.79c-.42-.68-.68-1.13-.93-1.59h0c-.23.46-.45.9-.87,1.6l-1,1.78h-1.2L13,28.71l-2.38-4h1.21l1.07,1.9c.3.53.53.94.74,1.37h0c.23-.48.43-.85.73-1.37l1.1-1.9h1.2L14.2,28.65l2.52,4.15Z"/><path class="cls-7" d="M19.14,24.71h1v7.21h3.46v.88h-4.5Z"/><path class="cls-7" d="M25.86,31.53a3.68,3.68,0,0,0,1.87.53c1.07,0,1.69-.57,1.69-1.38S29,29.49,27.9,29.07c-1.32-.47-2.14-1.15-2.14-2.29a2.34,2.34,0,0,1,2.62-2.2,3.7,3.7,0,0,1,1.78.4l-.28.85a3.33,3.33,0,0,0-1.54-.38c-1.1,0-1.52.66-1.52,1.21,0,.75.49,1.13,1.61,1.56,1.36.53,2.06,1.18,2.06,2.37s-.93,2.33-2.83,2.33a4.21,4.21,0,0,1-2.07-.52Z"/><path class="cls-7" d="M39.93,29.25c-.06-1.13-.13-2.48-.12-3.49h0c-.27.95-.61,1.95-1,3.07l-1.43,3.92h-.79L35.23,28.9c-.38-1.14-.71-2.18-.94-3.14h0c0,1-.08,2.36-.16,3.57L33.9,32.8h-1l.57-8.09H34.8l1.38,3.92c.33,1,.61,1.88.81,2.72h0a28.1,28.1,0,0,1,.85-2.72l1.44-3.92h1.33l.5,8.09h-1Z"/></svg>