<svg id="Layer_1" data-name="Layer 1" xmlns="http://www.w3.org/2000/svg" viewBox="0 0 49.1 36.9"><defs><style>.cls-1,.cls-4{fill:none;}.cls-1,.cls-2,.cls-4,.cls-7{stroke:#207245;}.cls-1,.cls-2{stroke-linecap:square;}.cls-1,.cls-4,.cls-7{stroke-miterlimit:10;}.cls-1,.cls-7{stroke-width:0.5px;}.cls-2,.cls-6{fill:#fff;}.cls-2{stroke-linejoin:round;}.cls-2,.cls-4{stroke-width:0.75px;}.cls-3,.cls-7{fill:#207245;}.cls-5{isolation:isolate;}</style></defs><title>Artboard 1 copy</title><line class="cls-1" x1="38.81" y1="12.56" x2="38.81" y2="21.56"/><polyline class="cls-1" points="10.61 21.54 10.61 1 28.01 1"/><path class="cls-2" d="M28.31,12.3H38.69L28.31,1.13Z"/><rect class="cls-3" x="10.76" y="0.9" width="17.65" height="20.64"/><rect class="cls-4" x="0.81" y="21.6" width="47.4" height="14.4" rx="5" ry="5"/><rect class="cls-3" x="27.14" y="12.3" width="11.55" height="9.24"/><g class="cls-5"><path class="cls-6" d="M19.83,9.37l3.3-5.66h3.14l-4.74,7.77,4.85,7.9H23.2l-3.37-5.74-3.38,5.74H13.29l4.85-7.9L13.4,3.71h3.14Z"/></g><path class="cls-7" d="M7.64,32.35a.71.71,0,0,1,.72-.75.76.76,0,0,1,0,1.51A.71.71,0,0,1,7.64,32.35Z"/><path class="cls-7" d="M16,33l-1-1.79c-.42-.69-.68-1.13-.93-1.6h0c-.23.47-.45.9-.87,1.61l-1,1.78H11l2.47-4.09-2.38-4H12.3l1.07,1.9c.3.52.53.93.74,1.36h0c.23-.48.43-.85.73-1.36l1.1-1.9h1.2l-2.45,3.94L17.24,33Z"/><path class="cls-7" d="M19.66,24.89h1V32.1h3.46V33h-4.5Z"/><path class="cls-7" d="M26.38,31.7a3.68,3.68,0,0,0,1.87.53c1.07,0,1.69-.56,1.69-1.38s-.43-1.19-1.52-1.6c-1.32-.47-2.14-1.16-2.14-2.3a2.34,2.34,0,0,1,2.62-2.19,3.6,3.6,0,0,1,1.79.4L30.4,26a3.19,3.19,0,0,0-1.54-.39c-1.1,0-1.52.66-1.52,1.21,0,.76.49,1.13,1.61,1.56,1.36.53,2.06,1.19,2.06,2.38s-.92,2.33-2.83,2.33a4.13,4.13,0,0,1-2.06-.52Z"/><path class="cls-7" d="M38.06,33l-1-1.79c-.42-.69-.68-1.13-.93-1.6h0a17.77,17.77,0,0,1-.87,1.61l-1,1.78H33l2.47-4.09-2.38-4h1.22l1.06,1.9c.3.52.53.93.75,1.36h0c.23-.48.43-.85.73-1.36L38,24.89h1.2l-2.46,3.94L39.28,33Z"/></svg>